HIERARCHY
ROOT hip
{
	OFFSET 0.000000 0.000000 0.000000 
	CHANNELS 6 Xposition Yposition Zposition Xrotation Zrotation Yrotation
	JOINT abdomen
	{
		OFFSET 0.000000 3.402643 0.000000 
		CHANNELS 3 Xrotation Zrotation Yrotation
		JOINT chest
		{
			OFFSET 0.000000 8.438565 -0.680529 
			CHANNELS 3 Xrotation Zrotation Yrotation
			JOINT neck
			{
				OFFSET 0.000000 10.207942 -0.272212 
				CHANNELS 3 Xrotation Zrotation Yrotation
				JOINT head
				{
					OFFSET 0.000000 3.130431 0.000000 
					CHANNELS 3 Xrotation Zrotation Yrotation
					End Site
					{
						OFFSET 0.000000 3.130435 0.000000 
					}
				}
			}
			JOINT lCollar
			{
				OFFSET 3.470700 6.669187 -0.816635 
				CHANNELS 3 Yrotation Zrotation Xrotation
				JOINT lShldr
				{
					OFFSET 3.198488 0.000000 0.000000 
					CHANNELS 3 Zrotation Yrotation Xrotation
					JOINT lForeArm
					{
						OFFSET 10.139888 0.000000 0.000000 
						CHANNELS 3 Yrotation Zrotation Xrotation
						JOINT lHand
						{
							OFFSET 8.370511 0.000000 0.000000 
							CHANNELS 3 Zrotation Yrotation Xrotation
							End Site
							{
								OFFSET 4.083176 0.000000 0.000000 
							}
						}
					}
				}
			}
			JOINT rCollar
			{
				OFFSET -3.470700 6.669187 -0.816635 
				CHANNELS 3 Yrotation Zrotation Xrotation
				JOINT rShldr
				{
					OFFSET -3.198488 0.000000 0.000000 
					CHANNELS 3 Zrotation Yrotation Xrotation
					JOINT rForeArm
					{
						OFFSET -10.139888 0.000000 0.000000 
						CHANNELS 3 Yrotation Zrotation Xrotation
						JOINT rHand
						{
							OFFSET -8.370511 0.000000 0.000000 
							CHANNELS 3 Zrotation Yrotation Xrotation
							End Site
							{
								OFFSET -4.083176 0.000000 0.000000 
							}
						}
					}
				}
			}
		}
	}
	JOINT lThigh
	{
		OFFSET 5.308129 -1.633274 1.361059 
		CHANNELS 3 Xrotation Zrotation Yrotation
		JOINT lShin
		{
			OFFSET -2.041588 -20.007561 0.000000 
			CHANNELS 3 Xrotation Zrotation Yrotation
			JOINT lFoot
			{
				OFFSET 0.000000 -19.190928 -1.224953 
				CHANNELS 3 Xrotation Yrotation Zrotation
				End Site
				{
					OFFSET 0.000000 -2.449906 4.627600 
				}
			}
		}
	}
	JOINT rThigh
	{
		OFFSET -5.308129 -1.633274 1.361059 
		CHANNELS 3 Xrotation Zrotation Yrotation
		JOINT rShin
		{
			OFFSET 2.041588 -20.007561 0.000000 
			CHANNELS 3 Xrotation Zrotation Yrotation
			JOINT rFoot
			{
				OFFSET 0.000000 -19.190928 -1.224953 
				CHANNELS 3 Xrotation Yrotation Zrotation
				End Site
				{
					OFFSET 0.000000 -2.449906 4.627600 
				}
			}
		}
	}
}
MOTION
Frames: 13
Frame Time: 0.011111
48.597569 51.354340 10.128332 0.579117 -5.831789 -0.831061 6.234572 9.658177 4.770981 -4.282269 -1.296860 1.099207 -8.222499 -5.797390 -2.440269 19.098236 2.566723 -5.322920 1.452834 -1.250150 0.768655 -47.212681 -92.224770 17.837931 -63.193142 10.104936 12.789524 6.992188 16.005859 -16.872303 -6.408587 0.914528 1.823621 79.844795 21.739941 -27.081614 38.527111 -4.306320 2.963049 -7.001954 -15.996095 11.679688 -47.001308 10.888627 -9.821795 27.406897 -5.263794 -1.991971 -13.931559 5.350412 0.690903 23.883415 5.741908 9.183198 7.428101 5.154572 0.272020 -11.681535 1.700314 0.916291 
48.657665 51.310551 10.709941 0.530141 -6.023216 -1.325946 6.140948 9.667334 5.036718 -4.204114 -1.385485 1.176405 -8.633160 -5.778099 -2.482328 19.699947 2.673957 -5.430432 1.452834 -1.250150 0.768655 -43.990894 -91.390770 15.114861 -63.589348 10.125354 12.968886 6.992188 16.005859 -16.676992 -6.408587 0.914528 1.823621 80.109818 22.373644 -26.198788 38.687687 -4.365585 3.019789 -7.001954 -15.996095 12.353517 -46.213852 11.190761 -9.571020 27.845161 -5.263663 -2.029322 -13.346089 5.249881 0.601646 23.631134 5.820172 9.398272 9.307044 5.190477 0.433881 -11.825785 2.138837 1.023349 
48.732250 51.243820 11.288228 0.746065 -6.053217 -1.661463 5.674826 9.543472 5.094628 -4.086905 -1.446256 1.203309 -8.574427 -5.799221 -2.514300 19.697062 2.894213 -5.457294 1.452834 -1.250150 0.768655 -27.751341 -90.503777 -0.693983 -63.899452 10.138223 13.102680 6.992188 16.005859 -16.335197 -6.408587 0.914528 1.823621 80.321487 23.061163 -25.923035 38.757988 -4.391884 3.039608 -7.001954 -15.996095 11.943359 -45.700008 11.220386 -9.394001 28.373634 -5.259163 -2.088596 -12.707745 5.181675 0.505479 23.362585 5.761147 9.388214 10.652912 5.214174 0.554767 -11.588431 2.430547 1.086524 
48.819519 51.182514 11.862287 1.157994 -5.975919 -2.035453 4.992193 9.313868 5.271244 -3.950156 -1.487772 1.278182 -8.515295 -5.777331 -2.524080 19.666849 3.106808 -5.425312 1.452834 -1.250150 0.768655 -81.975822 -89.527458 53.682724 -64.147026 10.151686 13.209969 6.992188 16.005859 -16.305899 -6.408587 0.914528 1.823621 80.525757 23.670872 -25.500177 38.888859 -4.444895 3.089212 -7.001954 -15.996095 11.933594 -45.255161 11.141658 -8.984770 28.941355 -5.254441 -2.129920 -12.138894 5.223288 0.454332 22.934042 5.565957 9.359207 11.779028 5.230573 0.648938 -11.374539 2.708793 1.152677 
48.899246 51.113667 12.477717 1.255522 -5.828306 -2.384343 4.602043 8.988616 5.384213 -3.823184 -1.509982 1.323768 -8.829922 -5.837759 -2.474497 20.174377 3.439266 -5.305373 1.452834 -1.250150 0.768655 -63.965160 -88.604652 35.559704 -64.392830 10.159299 13.318786 6.992188 16.005859 -16.481678 -6.408587 0.914528 1.823621 80.752495 23.925333 -21.883430 39.362030 -4.627548 3.249479 -7.001954 -15.996095 15.517578 -44.300659 10.975864 -8.489141 29.519384 -5.245024 -2.170433 -11.721205 5.323527 0.426442 22.754440 5.292293 9.301899 13.120146 5.248882 0.770661 -11.513165 2.967272 1.207255 
48.996784 51.026691 13.130293 1.205371 -5.489174 -2.811756 4.270401 8.490523 5.682340 -3.647375 -1.553099 1.426548 -9.020065 -6.118340 -2.491695 20.599915 3.857199 -5.302335 1.452834 -1.250150 0.768655 -61.328106 -87.620903 32.651821 -64.554543 10.167441 13.401155 6.992188 16.005859 -16.637932 -6.408587 0.914528 1.823621 80.891640 24.383877 -19.584780 39.593987 -4.718038 3.325918 -7.001954 -15.996095 17.705080 -42.991825 10.614464 -7.955294 30.184246 -5.249962 -2.237726 -11.623795 5.610893 0.457927 22.736406 4.755458 9.229940 14.359199 5.270402 0.889710 -11.615293 3.204826 1.239404 
49.095528 50.928551 13.783771 1.233792 -5.291134 -3.328018 3.876357 8.129667 6.153773 -3.354412 -1.551356 1.565122 -9.081106 -6.327107 -2.601031 20.629723 4.243917 -5.510285 1.452834 -1.250150 0.768655 -60.978951 -86.759628 32.263348 -64.640015 10.169544 13.438391 6.992188 16.005859 -16.550039 -6.408587 0.914528 1.823621 81.095528 25.611887 -22.727509 39.190369 -4.555237 3.187928 -7.001954 -15.996095 14.423830 -41.788574 10.428559 -7.342774 30.950294 -5.239448 -2.305744 -11.745408 5.821947 0.508098 22.823006 4.345400 9.248256 15.335216 5.270133 0.957196 -11.522331 3.622708 1.350226 
49.176765 50.823765 14.424568 1.135235 -5.248491 -3.786890 3.756245 7.813375 6.542768 -3.207946 -1.575856 1.687948 -9.196055 -6.246556 -2.730500 20.604702 4.513525 -5.704674 1.452834 -1.250150 0.768655 -60.692173 -85.703743 32.060917 -64.801598 10.176612 13.509546 6.992188 16.005859 -16.520744 -6.408587 0.914528 1.823621 81.488228 27.156784 -29.262686 38.436398 -4.265665 2.929155 -7.001954 -15.996095 7.988281 -40.506733 10.331861 -6.818684 31.774132 -5.235394 -2.367348 -12.197855 5.934035 0.586092 23.137220 4.101483 9.750786 16.291510 5.279670 1.044805 -11.289178 3.740262 1.371645 
49.256783 50.707806 15.068686 1.115016 -5.221547 -4.233855 3.519576 7.589546 6.941403 -3.207952 -1.615816 1.804830 -9.196234 -6.308733 -2.809521 20.638529 4.805250 -5.816095 1.452834 -1.250150 0.768655 -60.877422 -84.333748 32.445396 -65.113617 10.187997 13.653429 6.992188 16.005859 -16.637932 -6.408587 0.914528 1.823621 81.724541 27.910982 -30.701273 38.185314 -4.164879 2.849934 -7.001954 -15.996095 6.972656 -39.361893 10.214310 -6.401707 32.670502 -5.205953 -2.444794 -12.772878 5.906354 0.647445 23.313036 3.847706 10.048100 17.239168 5.267024 1.129077 -10.716283 3.991525 1.393661 
49.341942 50.601814 15.742096 1.232312 -5.459414 -4.591698 3.004421 7.792080 7.171099 -3.032184 -1.671009 1.877456 -9.120673 -6.468816 -2.791977 20.638718 5.051390 -5.765109 1.452834 -1.250150 0.768655 -61.384926 -82.972633 32.791046 -65.284187 10.189485 13.728549 6.992188 16.005859 -16.813711 -6.408587 0.914528 1.823621 81.850983 28.311890 -28.644306 38.406166 -4.252086 2.914875 -7.001954 -15.996095 8.964845 -38.380627 10.281833 -6.281613 33.502235 -5.206207 -2.498335 -12.882245 5.920767 0.672022 23.290651 3.857441 10.126975 18.349850 5.272010 1.203064 -10.025773 4.377493 1.445082 
49.433144 50.505180 16.438759 1.291510 -5.926548 -4.900957 2.529044 8.249551 7.236551 -2.885587 -1.861593 1.890227 -9.069094 -6.280601 -2.747835 20.761070 5.060246 -5.641325 1.452834 -1.250150 0.768655 -61.564301 -81.505936 32.902416 -65.327606 10.191777 13.750858 6.992188 16.005859 -16.852774 -6.408587 0.914528 1.823621 82.043701 28.932636 -27.958300 38.416397 -4.259164 2.921650 -7.001954 -15.996095 9.208985 -37.302444 10.487875 -6.236220 34.308155 -5.176548 -2.581525 -12.271856 5.836183 0.575981 23.718960 4.072279 10.456808 18.784880 5.280619 1.240580 -8.885623 4.571915 1.426709 
49.534912 50.346039 17.142969 1.369710 -6.127920 -5.197273 1.980798 8.375907 7.542769 -2.905057 -1.998920 1.986729 -8.939040 -6.194641 -2.882923 21.008787 5.221647 -5.837904 1.452834 -1.250150 0.768655 -61.984657 -79.930801 33.756584 -65.392723 10.195112 13.786078 6.992188 16.005859 -16.764883 -6.408587 0.914528 1.823621 82.211830 28.829128 -22.986389 38.939175 -4.464635 3.101588 -7.001954 -15.996095 14.492188 -36.001102 10.457990 -5.281159 34.951763 -5.171889 -2.635897 -10.738157 5.067126 0.271903 24.078041 3.955125 10.166035 19.130142 5.281451 1.283329 -7.535889 5.186666 1.439437 
49.634861 50.483437 17.852921 1.437631 -6.039970 -5.349046 1.467370 8.167293 7.791097 -3.032020 -2.024647 2.068956 -8.696729 -6.458265 -3.035229 21.214901 5.835239 -6.033796 1.452834 -1.250150 0.768655 -62.895809 -78.284859 34.601856 -65.445374 10.193743 13.800385 6.992188 16.005859 -17.106680 -6.408587 0.914528 1.823621 82.344460 27.992531 -13.772691 40.472424 -5.046241 3.628561 -7.001954 -15.996095 24.228516 -36.254326 9.940448 -6.189566 35.576065 -5.162057 -2.696671 -10.788169 5.544324 0.340790 24.218019 3.593758 9.478681 19.383726 5.281211 1.293372 -5.679390 5.924696 1.391269 
